<svg xmlns="http://www.w3.org/2000/svg" width="72.748" height="72.748" viewBox="0 0 72.748 72.748"><g transform="translate(0 0)"><path d="M49.216,184H18.525A8.525,8.525,0,0,0,10,192.525v21.881a8.525,8.525,0,0,0,8.525,8.525h9.233l-.128.011,6.241,6.241,0-6.252H49.216a8.525,8.525,0,0,0,8.525-8.525V192.525A8.525,8.525,0,0,0,49.216,184Z" transform="translate(-8.579 -157.856)" fill="#7dd2f0"></path><path d="M25.291,222.025a1.42,1.42,0,0,1-1-.416l-5.836-5.836h-8.5A9.957,9.957,0,0,1,0,205.827V183.946A9.957,9.957,0,0,1,9.946,174H24.3a1.421,1.421,0,1,1,0,2.842H9.946a7.112,7.112,0,0,0-7.1,7.1v21.881a7.112,7.112,0,0,0,7.1,7.1h9.233a1.421,1.421,0,0,1,1.3.854l3.391,3.391,0-2.825a1.421,1.421,0,0,1,1.421-1.42H40.636a7.112,7.112,0,0,0,7.1-7.1v-9.8a1.421,1.421,0,1,1,2.842,0v9.8a9.957,9.957,0,0,1-9.946,9.946H26.715l0,4.832a1.421,1.421,0,0,1-1.421,1.42Z" transform="translate(0 -149.277)" fill="#1d241c"></path><path d="M228.827,10h-3.6A19.231,19.231,0,0,0,206,29.231h0a19.231,19.231,0,0,0,19.231,19.231h3.6a19.225,19.225,0,0,0,5.656-.846l5.9,5.9V44.6a19.2,19.2,0,0,0,7.673-15.37h0A19.231,19.231,0,0,0,228.827,10Z" transform="translate(-176.73 -8.579)" fill="#f2c200"></path><path d="M231.806,46.356a1.421,1.421,0,0,1-1-.416l-5.312-5.309a20.691,20.691,0,0,1-5.242.672h-3.6a20.652,20.652,0,0,1,0-41.3h3.6A20.675,20.675,0,0,1,240.9,20.652a20.429,20.429,0,0,1-2.244,9.371,20.849,20.849,0,0,1-5.429,6.693v8.221a1.421,1.421,0,0,1-1.421,1.421Zm-5.9-8.741a1.421,1.421,0,0,1,1,.416l3.477,3.475V36.022a1.421,1.421,0,0,1,.566-1.135,17.81,17.81,0,0,0-10.7-32.045h-3.6a17.81,17.81,0,0,0,0,35.62h3.6a17.815,17.815,0,0,0,5.238-.783A1.419,1.419,0,0,1,225.9,37.616Z" transform="translate(-168.151 0)" fill="#1d241c"></path><path d="M320.478,86.646a1.421,1.421,0,0,1-1.421-1.421V81.812a2.689,2.689,0,0,1,2.118-2.636,3.174,3.174,0,1,0-3.871-3.1,1.421,1.421,0,1,1-2.842,0,6.037,6.037,0,0,1,1.911-4.4,5.969,5.969,0,0,1,4.527-1.6,6.016,6.016,0,0,1,1,11.847v3.3A1.421,1.421,0,0,1,320.478,86.646Z" transform="translate(-269.781 -60.108)" fill="#1d241c"></path><path d="M348.221,209.172a1.419,1.419,0,1,1,1-.415A1.43,1.43,0,0,1,348.221,209.172Z" transform="translate(-297.525 -177.013)" fill="#1d241c"></path><path d="M85.4,312.842H55.421a1.421,1.421,0,1,1,0-2.842H85.4a1.421,1.421,0,1,1,0,2.842Z" transform="translate(-46.327 -265.953)" fill="#1d241c"></path><path d="M266.421,368.842a1.422,1.422,0,1,1,1-.416A1.432,1.432,0,0,1,266.421,368.842Z" transform="translate(-227.347 -313.996)" fill="#1d241c"></path><path d="M79.812,368.842H55.421a1.421,1.421,0,1,1,0-2.842H79.812a1.421,1.421,0,1,1,0,2.842Z" transform="translate(-46.327 -313.996)" fill="#1d241c"></path><path d="M76.165,256.842H55.421a1.421,1.421,0,0,1,0-2.842H76.165a1.421,1.421,0,0,1,0,2.842Z" transform="translate(-46.327 -217.91)" fill="#1d241c"></path></g></svg>