<svg xmlns="http://www.w3.org/2000/svg" width="72.748" height="72.748" viewBox="0 0 72.748 72.748"><g transform="translate(0 0)"><ellipse cx="35.168" cy="35.168" rx="35.168" ry="35.168" transform="translate(1.206 1.206)" fill="#7dd2f0"></ellipse><path d="M11.7,46.868A35.166,35.166,0,0,1,70.075,20.446,35.167,35.167,0,1,0,20.446,70.076,35.032,35.032,0,0,1,11.7,46.868Z" transform="translate(-7.279 -7.279)" opacity="0.1"></path><path d="M97.04,123.365a26.327,26.327,0,1,1,26.327-26.327A26.357,26.357,0,0,1,97.04,123.365Z" transform="translate(-60.666 -60.664)" fill="#fff"></path><path d="M73.926,100.254a26.312,26.312,0,0,1,43.256-20.144,26.315,26.315,0,1,0-37.074,37.074A26.208,26.208,0,0,1,73.926,100.254Z" transform="translate(-60.664 -60.664)" opacity="0.1"></path><path d="M151.8,68.025a1.2,1.2,0,0,0,.6-.163,36.359,36.359,0,0,0,18.157-31.489A36.38,36.38,0,0,0,114.569,5.74a1.206,1.206,0,1,0,1.3,2.029A33.967,33.967,0,1,1,151.2,65.777a1.206,1.206,0,0,0,.606,2.249Z" transform="translate(-97.815 0)" fill="#1d241c"></path><path d="M36.374,123.826a36.2,36.2,0,0,0,13.42-2.557,1.206,1.206,0,0,0-.89-2.241,33.967,33.967,0,0,1-34.622-57.37,1.206,1.206,0,0,0-1.569-1.831,36.373,36.373,0,0,0,23.662,64Z" transform="translate(0 -51.078)" fill="#1d241c"></path><path d="M109.226,109.227a1.189,1.189,0,0,0,.118-.139,27.482,27.482,0,0,0,0-38.659,1.2,1.2,0,0,0-.118-.139,1.188,1.188,0,0,0-.139-.118,27.483,27.483,0,0,0-38.659,0,1.188,1.188,0,0,0-.139.118,1.2,1.2,0,0,0-.118.139,27.483,27.483,0,0,0,0,38.659,1.094,1.094,0,0,0,.257.257,27.483,27.483,0,0,0,38.659,0A1.179,1.179,0,0,0,109.226,109.227Zm-6.689-4.984,4.1,4.1a25.025,25.025,0,0,1-15.677,6.5v-5.813a1.206,1.206,0,0,0-2.411,0v5.813a25.025,25.025,0,0,1-15.677-6.5l4.1-4.1a1.206,1.206,0,0,0-1.705-1.7l-4.1,4.1a25.025,25.025,0,0,1-6.5-15.677h5.813a1.206,1.206,0,0,0,0-2.411H64.666a25.025,25.025,0,0,1,6.5-15.677l4.1,4.1a1.206,1.206,0,0,0,1.705-1.7l-4.1-4.1a25.025,25.025,0,0,1,15.677-6.5V70.48a1.206,1.206,0,1,0,2.411,0V64.667a25.025,25.025,0,0,1,15.677,6.5l-4.1,4.1a1.206,1.206,0,0,0,1.705,1.7l4.1-4.1a25.025,25.025,0,0,1,6.5,15.677h-5.813a1.206,1.206,0,0,0,0,2.411h5.813a25.025,25.025,0,0,1-6.5,15.677l-4.1-4.1a1.206,1.206,0,0,0-1.705,1.705Z" transform="translate(-53.384 -53.384)" fill="#1d241c"></path><path d="M243.851,167.151V156.011a2.411,2.411,0,1,0-4.823,0V168.15a2.411,2.411,0,0,0,.706,1.7l6.517,6.517a2.411,2.411,0,1,0,3.41-3.41Z" transform="translate(-205.065 -131.775)" fill="#515262"></path><path d="M240.678,171a3.593,3.593,0,0,1-2.558-1.059l-6.517-6.516a3.593,3.593,0,0,1-1.059-2.558V148.733a3.617,3.617,0,1,1,7.234,0v10.64l5.457,5.457A3.617,3.617,0,0,1,240.678,171Zm-6.517-23.477a1.207,1.207,0,0,0-1.206,1.206v12.138a1.2,1.2,0,0,0,.353.853l6.517,6.517a1.206,1.206,0,0,0,1.705-1.705l-6.164-6.164V148.733A1.207,1.207,0,0,0,234.161,147.527Z" transform="translate(-197.787 -124.497)" fill="#1d241c"></path></g></svg>