<svg xmlns="http://www.w3.org/2000/svg" width="48.31" height="72.748" viewBox="0 0 48.31 72.748"><path d="M124.892,383.965l-.055-.043H112.649l-.055.043c-9.571,1-16.591,4.3-16.591,8.21,0,4.709,10.177,8.525,22.733,8.525s22.733-3.816,22.733-8.525C141.469,388.265,134.456,384.971,124.892,383.965Z" transform="translate(-94.58 -329.371)" fill="#b4e66e"></path><path d="M118.9,10a22.735,22.735,0,0,1,22.563,22.9c-.08,10.632-6.405,16.894-16.632,30.226-1.9,2.481-3.943,5.206-6.1,8.251-2.153-3.048-4.187-5.773-6.087-8.252C102.285,49.62,95.915,43.456,96,32.564A22.735,22.735,0,0,1,118.9,10Zm8.354,22.8a8.525,8.525,0,1,0-8.589,8.461A8.525,8.525,0,0,0,127.255,32.8Z" transform="translate(-94.575 -8.58)" fill="#fc4b00"></path><path d="M248.311,42.845a1.421,1.421,0,1,0-1.411-1.431A1.42,1.42,0,0,0,248.311,42.845Z" transform="translate(-224.038 -34.32)" fill="#1d241c"></path><path d="M196.02,100a9.946,9.946,0,0,0-.149,19.892h.076A9.946,9.946,0,0,0,196.02,100Zm-.073,17.05h-.055a7.1,7.1,0,0,1,.052-14.209H196a7.1,7.1,0,0,1-.052,14.209Z" transform="translate(-171.79 -85.793)"></path><path d="M288.183,47.093a1.421,1.421,0,0,0-.949,2.679A15.612,15.612,0,0,1,297.613,64.6a1.421,1.421,0,0,0,1.41,1.432h.011a1.421,1.421,0,0,0,1.421-1.41A18.456,18.456,0,0,0,288.183,47.093Z" transform="translate(-257.829 -40.332)" fill="#1d241c"></path><path d="M134.306,24.336A24.155,24.155,0,1,0,86,23.974c-.081,10.931,5.934,17.266,15.45,29.511C91.981,54.9,86,58.454,86,62.8c0,2.912,2.692,5.526,7.58,7.359a48.882,48.882,0,0,0,16.574,2.587,48.883,48.883,0,0,0,16.574-2.587c4.888-1.833,7.58-4.446,7.58-7.359,0-4.345-5.978-7.9-15.436-9.315C128.32,41.322,134.226,34.979,134.306,24.336ZM131.464,62.8c0,3.354-9.114,7.1-21.313,7.1s-21.313-3.751-21.313-7.1c0-2.487,5.449-5.629,14.61-6.717,2.025,2.657,3.8,5.071,5.542,7.537a1.421,1.421,0,0,0,1.159.6h0a1.421,1.421,0,0,0,1.159-.6c1.725-2.433,3.549-4.907,5.557-7.537C126.02,57.176,131.464,60.317,131.464,62.8Zm-16.338-9.116c-1.784,2.324-3.422,4.521-4.972,6.671-1.546-2.151-3.151-4.308-4.961-6.671C94.779,40.1,88.762,34.346,88.839,24a21.313,21.313,0,1,1,42.625.32C131.388,34.422,125.125,40.651,115.125,53.686Z" transform="translate(-85.996 0)" fill="#1d241c"></path></svg>